<?xml version="1.0" encoding="UTF-8"?>
<!DOCTYPE svg PUBLIC "-//W3C//DTD SVG 1.1//EN" "http://www.w3.org/Graphics/SVG/1.1/DTD/svg11.dtd">
<svg xmlns="http://www.w3.org/2000/svg" version="1.1" width="500px" height="500px" style="shape-rendering:geometricPrecision; text-rendering:geometricPrecision; image-rendering:optimizeQuality; fill-rule:evenodd; clip-rule:evenodd" xmlns:xlink="http://www.w3.org/1999/xlink">
<g><path style="opacity:0.985" fill="#f64071" d="M 240.5,63.5 C 272.283,63.1163 287.116,78.7829 285,110.5C 284.286,113.595 283.286,116.595 282,119.5C 226.746,219.006 171.746,318.673 117,418.5C 104.608,434.184 88.7743,439.017 69.5,433C 48.5843,421.608 41.7509,404.441 49,381.5C 104.587,281.327 159.92,180.994 215,80.5C 221.505,71.676 230.005,66.0093 240.5,63.5 Z"/></g>
<g><path style="opacity:0.977" fill="#fccd25" d="M 298.5,155.5 C 322.337,154.323 336.837,165.323 342,188.5C 343.47,210.741 333.637,225.241 312.5,232C 288.991,235.338 273.491,225.838 266,203.5C 262.729,177.657 273.562,161.657 298.5,155.5 Z"/></g>
<g><path style="opacity:0.984" fill="#fccd25" d="M 345.5,232.5 C 358.542,232.772 369.375,237.772 378,247.5C 402.588,292.34 426.921,337.34 451,382.5C 456.433,403.873 449.599,420.04 430.5,431C 412.411,437.436 396.911,433.603 384,419.5C 360.333,376.167 336.667,332.833 313,289.5C 304.689,268.571 309.523,251.404 327.5,238C 333.34,235.213 339.34,233.38 345.5,232.5 Z"/></g>
<g><path style="opacity:0.985" fill="#248dbf" d="M 175.5,355.5 C 207.502,355.333 239.502,355.5 271.5,356C 288.22,356.059 304.886,356.725 321.5,358C 343.035,367.235 351.201,383.401 346,406.5C 340.894,420.606 331.061,429.44 316.5,433C 257.167,433.667 197.833,433.667 138.5,433C 131.524,430.801 129.691,426.301 133,419.5C 143.7,398.819 155.2,378.652 167.5,359C 170.158,357.522 172.825,356.355 175.5,355.5 Z"/></g>
</svg>
