<svg viewBox="0 0 1030 1024" version="1.1" xmlns="http://www.w3.org/2000/svg" width="32.1875" height="32" fill="#666">
    <path d="M752.276543 1024H379.338272c-44.246914 0-69.530864-25.283951-69.530865-69.530864 0-44.246914 25.283951-69.530864 69.530865-69.530864h372.938271c69.530864 0 126.419753-56.888889 126.419753-126.419753V404.54321c0-44.246914 25.283951-69.530864 69.530864-69.530864 44.246914 0 69.530864 25.283951 69.530865 69.530864V758.518519c0 145.382716-120.098765 265.481481-265.481482 265.481481z m0 0"/>
    <path d="M701.708642 0H63.288889c-37.925926 0-63.209877 31.604938-63.209877 63.209877v638.419753c0 37.925926 31.604938 63.209877 63.209877 63.209876H701.708642c37.925926 0 63.209877-31.604938 63.209877-63.209876V63.209877c0-31.604938-31.604938-63.209877-63.209877-63.209877z"/>
</svg>